name rise32.9588peak41.5061fall63.4684.mot
datacolumns 19
datarows 33
range 0.000000 0.053330
endheader
time	ground_force1_vx	ground_force1_vy	ground_force1_vz	ground_force1_px	ground_force1_py	ground_force1_pz	ground_force2_vx	ground_force2_vy	ground_force2_vz	ground_force2_px	ground_force2_py	ground_force2_pz	ground_torque1_x	ground_torque1_y	ground_torque1_z	ground_torque2_x	ground_torque2_y	ground_torque2_z	
0.000000	0.000000	0.000000	0.000000	0.000000	0.000000	0.000000	7.796023	696.753719	-42.021605	0.247161	0.000000	-0.061092	0.000000	0.000000	0.000000	0.000000	-26.724436	0.000000	
0.001681	0.000000	0.000000	0.000000	0.000000	0.000000	0.000000	8.023649	696.781338	-42.022312	0.246893	0.000000	-0.061203	0.000000	0.000000	0.000000	0.000000	-26.406913	0.000000	
0.003338	0.000000	0.000000	0.000000	0.000000	0.000000	0.000000	8.249209	696.808413	-42.022914	0.246597	0.000000	-0.061316	0.000000	0.000000	0.000000	0.000000	-26.090929	0.000000	
0.005005	0.000000	0.000000	0.000000	0.000000	0.000000	0.000000	8.471209	696.835773	-42.022709	0.246273	0.000000	-0.061430	0.000000	0.000000	0.000000	0.000000	-25.776723	0.000000	
0.006665	0.000000	0.000000	0.000000	0.000000	0.000000	0.000000	8.688382	696.864351	-42.020983	0.245920	0.000000	-0.061544	0.000000	0.000000	0.000000	0.000000	-25.464180	0.000000	
0.008330	0.000000	0.000000	0.000000	0.000000	0.000000	0.000000	8.899664	696.895148	-42.017043	0.245539	0.000000	-0.061660	0.000000	0.000000	0.000000	0.000000	-25.152930	0.000000	
0.009997	0.000000	0.000000	0.000000	0.000000	0.000000	0.000000	9.104166	696.929197	-42.010247	0.245128	0.000000	-0.061776	0.000000	0.000000	0.000000	0.000000	-24.842458	0.000000	
0.011664	0.000000	0.000000	0.000000	0.000000	0.000000	0.000000	9.301140	696.967538	-42.000027	0.244687	0.000000	-0.061892	0.000000	0.000000	0.000000	0.000000	-24.532200	0.000000	
0.013335	0.000000	0.000000	0.000000	0.000000	0.000000	0.000000	9.489943	697.011194	-41.985905	0.244215	0.000000	-0.062008	0.000000	0.000000	0.000000	0.000000	-24.221632	0.000000	
0.014997	0.000000	0.000000	0.000000	0.000000	0.000000	0.000000	9.670003	697.061158	-41.967501	0.243713	0.000000	-0.062125	0.000000	0.000000	0.000000	0.000000	-23.910332	0.000000	
0.016663	0.000000	0.000000	0.000000	0.000000	0.000000	0.000000	9.840788	697.118389	-41.944537	0.243179	0.000000	-0.062241	0.000000	0.000000	0.000000	0.000000	-23.598032	0.000000	
0.018332	0.000000	0.000000	0.000000	0.000000	0.000000	0.000000	10.001776	697.183806	-41.916831	0.242614	0.000000	-0.062357	0.000000	0.000000	0.000000	0.000000	-23.284646	0.000000	
0.020001	0.000000	0.000000	0.000000	0.000000	0.000000	0.000000	10.152439	697.258293	-41.884293	0.242018	0.000000	-0.062471	0.000000	0.000000	0.000000	0.000000	-22.970278	0.000000	
0.021668	0.000000	0.000000	0.000000	0.000000	0.000000	0.000000	10.292228	697.342712	-41.846909	0.241390	0.000000	-0.062585	0.000000	0.000000	0.000000	0.000000	-22.655218	0.000000	
0.023335	0.000000	0.000000	0.000000	0.000000	0.000000	0.000000	10.420565	697.437907	-41.804733	0.240731	0.000000	-0.062698	0.000000	0.000000	0.000000	0.000000	-22.339921	0.000000	
0.025003	0.000000	0.000000	0.000000	0.000000	0.000000	0.000000	10.536839	697.544719	-41.757869	0.240041	0.000000	-0.062809	0.000000	0.000000	0.000000	0.000000	-22.024984	0.000000	
0.026668	0.000000	0.000000	0.000000	0.000000	0.000000	0.000000	10.640414	697.663995	-41.706461	0.239320	0.000000	-0.062919	0.000000	0.000000	0.000000	0.000000	-21.711111	0.000000	
0.028338	0.000000	0.000000	0.000000	0.000000	0.000000	0.000000	10.730631	697.796603	-41.650683	0.238569	0.000000	-0.063027	0.000000	0.000000	0.000000	0.000000	-21.399078	0.000000	
0.030005	0.000000	0.000000	0.000000	0.000000	0.000000	0.000000	10.806820	697.943435	-41.590723	0.237788	0.000000	-0.063133	0.000000	0.000000	0.000000	0.000000	-21.089701	0.000000	
0.031671	0.000000	0.000000	0.000000	0.000000	0.000000	0.000000	10.868312	698.105415	-41.526783	0.236977	0.000000	-0.063237	0.000000	0.000000	0.000000	0.000000	-20.783804	0.000000	
0.033333	0.000000	0.000000	0.000000	0.000000	0.000000	0.000000	10.914446	698.283508	-41.459070	0.236138	0.000000	-0.063338	0.000000	0.000000	0.000000	0.000000	-20.482192	0.000000	
0.035006	0.000000	0.000000	0.000000	0.000000	0.000000	0.000000	10.944586	698.478714	-41.387793	0.235270	0.000000	-0.063437	0.000000	0.000000	0.000000	0.000000	-20.185634	0.000000	
0.036670	0.000000	0.000000	0.000000	0.000000	0.000000	0.000000	10.958127	698.692073	-41.313164	0.234375	0.000000	-0.063533	0.000000	0.000000	0.000000	0.000000	-19.894846	0.000000	
0.038339	0.000000	0.000000	0.000000	0.000000	0.000000	0.000000	10.954504	698.924662	-41.235396	0.233454	0.000000	-0.063625	0.000000	0.000000	0.000000	0.000000	-19.610479	0.000000	
0.040000	0.000000	0.000000	0.000000	0.000000	0.000000	0.000000	10.933204	699.177586	-41.154709	0.232508	0.000000	-0.063715	0.000000	0.000000	0.000000	0.000000	-19.333122	0.000000	
0.041668	0.000000	0.000000	0.000000	0.000000	0.000000	0.000000	10.893765	699.451980	-41.071329	0.231537	0.000000	-0.063802	0.000000	0.000000	0.000000	0.000000	-19.063294	0.000000	
0.043337	0.000000	0.000000	0.000000	0.000000	0.000000	0.000000	10.835782	699.748997	-40.985492	0.230543	0.000000	-0.063885	0.000000	0.000000	0.000000	0.000000	-18.801453	0.000000	
0.045005	0.000000	0.000000	0.000000	0.000000	0.000000	0.000000	10.758910	700.069804	-40.897450	0.229528	0.000000	-0.063964	0.000000	0.000000	0.000000	0.000000	-18.548002	0.000000	
0.046667	0.000000	0.000000	0.000000	0.000000	0.000000	0.000000	10.662865	700.415574	-40.807469	0.228492	0.000000	-0.064040	0.000000	0.000000	0.000000	0.000000	-18.303292	0.000000	
0.048343	0.000000	0.000000	0.000000	0.000000	0.000000	0.000000	10.547420	700.787481	-40.715834	0.227436	0.000000	-0.064112	0.000000	0.000000	0.000000	0.000000	-18.067631	0.000000	
0.050001	0.000000	0.000000	0.000000	0.000000	0.000000	0.000000	10.412406	701.186692	-40.622853	0.226363	0.000000	-0.064180	0.000000	0.000000	0.000000	0.000000	-17.841295	0.000000	
0.051665	0.000000	0.000000	0.000000	0.000000	0.000000	0.000000	10.257710	701.614363	-40.528852	0.225273	0.000000	-0.064244	0.000000	0.000000	0.000000	0.000000	-17.624529	0.000000	
0.053330	0.000000	0.000000	0.000000	0.000000	0.000000	0.000000	10.083273	702.071631	-40.434182	0.224169	0.000000	-0.064303	0.000000	0.000000	0.000000	0.000000	-17.417553	0.000000	
